<svg xmlns="http://www.w3.org/2000/svg" viewBox="0 0 100 100" width="100" height="100">
  <!-- Background Circle -->
  <circle cx="50" cy="50" r="48" fill="#4a6fa5" />
  
  <!-- Hand Icon -->
  <g fill="#ffffff">
    <!-- Thumb -->
    <path d="M35,65 C32,62 30,58 30,55 C30,52 32,50 35,50 C38,50 40,52 40,55 L40,60 Z" />
    
    <!-- Index Finger -->
    <path d="M45,35 C45,32 47,30 50,30 C53,30 55,32 55,35 L55,60 L45,60 Z" />
    
    <!-- Middle Finger -->
    <path d="M60,30 C60,27 62,25 65,25 C68,25 70,27 70,30 L70,60 L60,60 Z" />
    
    <!-- Palm -->
    <path d="M35,60 L70,60 L70,70 C70,75 65,80 60,80 L45,80 C40,80 35,75 35,70 Z" />
  </g>
  
  <!-- Speech Bubble -->
  <path d="M75,40 L85,40 C88,40 90,42 90,45 L90,55 C90,58 88,60 85,60 L80,60 L75,65 Z" fill="#ffffff" />
</svg>